:SAMPLES-PER-SECOND 30
:FULLY-SPECIFIED
:DEGREES
145
root  -12.084 39.0217 -9.88287 -1.37683 84.2735 10.1863
RightUpLeg  28.9218 -10.2697 -10.8562
RightLeg  14.0008 0.653233 0.58751
RightFoot  -17.2566 0.247755 7.24221
RightToes  0.000482159 0.542163 -0.142577
Spine  16.6153 0.0897954 4.63144
Spine1  12.86 4.45153 -12.5434
HEad  1.73403 10.4714 -3.95451
LeftShoulder1  8.32436 -12.9712 -43.9855
LeftArm  -18.481 34.9114 -18.5461
LeftForeArm  110.096 -75.7845 -129.979
LeftHand  -0.25398 0.0180481 5.50724
RightShoulder  5.75497 9.89383 36.9482
RightArm  -13.3152 -24.6665 30.2307
RightForeArm  79.9833 73.4365 133.417
RightHand  1.1699 -18.2416 -11.2676
LeftUpLeg  -12.0108 10.6325 -0.972635
LeftLeg  15.4306 11.0215 1.20833
LeftFoot  1.32829 -0.486976 4.43008
LeftToes  1.06247e-005 4.65855e-005 -8.18504e-006
146
root  -10.3178 38.7885 -9.95456 4.63487 83.3821 15.9253
RightUpLeg  25.8898 -9.18305 -12.5034
RightLeg  23.5447 1.24482 0.244391
RightFoot  -13.818 0.15391 12.4647
RightToes  0.000482159 0.542163 -0.142577
Spine  14.8384 0.831514 2.55814
Spine1  13.3325 4.5092 -11.311
HEad  2.97269 11.5087 -3.96469
LeftShoulder1  8.34582 -12.9282 -44.2255
LeftArm  -16.8742 34.0752 -17.9023
LeftForeArm  107.006 -76.3427 -126.957
LeftHand  -0.25398 0.0180481 5.50724
RightShoulder  5.78394 9.84841 37.2998
RightArm  -13.5552 -25.6322 29.7175
RightForeArm  79.0997 73.686 132.454
RightHand  1.12281 -17.9263 -11.118
LeftUpLeg  -13.0426 13.6426 -2.97733
LeftLeg  21.0961 6.94626 3.51757
LeftFoot  1.91856 -0.621034 5.24001
LeftToes  1.06247e-005 4.65855e-005 -8.18504e-006
147
root  -8.61147 38.778 -10.1019 6.74713 82.3647 17.6866
RightUpLeg  19.8751 -7.92706 -13.3268
RightLeg  35.8677 -1.39671 -1.41177
RightFoot  -3.53132 -0.78375 12.1459
RightToes  0.000482159 0.542163 -0.142577
Spine  13.447 1.2136 1.83348
Spine1  13.5543 4.78416 -11.1006
HEad  4.27222 12.4974 -4.22903
LeftShoulder1  8.42477 -13.0208 -44.4022
LeftArm  -15.474 33.0483 -17.4644
LeftForeArm  103.21 -76.9846 -122.965
LeftHand  -0.25398 0.0180481 5.50724
RightShoulder  5.77724 9.82381 37.3286
RightArm  -14.046 -26.4268 29.6818
RightForeArm  77.2174 74.045 130.922
RightHand  1.1461 -17.7921 -11.437
LeftUpLeg  -12.5109 12.5746 -3.26572
LeftLeg  25.1927 8.79885 4.83039
LeftFoot  -1.66263 -0.401585 4.86509
LeftToes  1.06247e-005 4.65855e-005 -8.18504e-006
148
root  -7.02021 38.8636 -10.2912 9.25133 80.8864 19.9279
RightUpLeg  11.8687 -7.06011 -14.0335
RightLeg  48.2293 -3.42327 -4.38526
RightFoot  8.28671 -1.03624 6.29597
RightToes  0.000482159 0.542163 -0.142577
Spine  12.7268 1.51531 1.2912
Spine1  13.6033 5.13517 -11.4337
HEad  5.05574 13.7361 -4.92496
LeftShoulder1  8.48928 -13.1252 -44.4644
LeftArm  -14.5467 32.2045 -17.2445
LeftForeArm  100.872 -77.3686 -120.235
LeftHand  -0.25398 0.0180481 5.50724
RightShoulder  5.75087 9.88192 36.9556
RightArm  -14.2661 -26.703 29.6779
RightForeArm  74.7867 74.3636 129.378
RightHand  1.22125 -17.8665 -12.0388
LeftUpLeg  -10.772 12.9978 -4.11799
LeftLeg  26.8271 10.0452 5.81706
LeftFoot  -5.54895 -0.209436 4.80311
LeftToes  1.06247e-005 4.65855e-005 -8.18504e-006
149
root  -5.52034 39.006 -10.438 11.7533 79.344 21.8941
RightUpLeg  3.58954 -6.68522 -14.2297
RightLeg  57.4274 -3.12306 -5.64383
RightFoot  13.2073 -0.259547 1.47557
RightToes  0.000482159 0.542163 -0.142577
Spine  11.8978 1.83425 0.190694
Spine1  13.7839 5.26331 -11.1184
HEad  5.11696 15.2856 -5.97645
LeftShoulder1  8.48786 -13.1321 -44.4372
LeftArm  -13.8735 31.5001 -17.1893
LeftForeArm  99.2819 -77.6046 -118.36
LeftHand  -0.25398 0.0180481 5.50724
RightShoulder  5.72221 9.94546 36.5509
RightArm  -13.9712 -26.3186 29.3195
RightForeArm  72.124 74.7099 127.579
RightHand  1.26918 -17.8997 -12.4323
LeftUpLeg  -8.59681 13.6764 -5.08333
LeftLeg  26.4684 10.6358 6.05351
LeftFoot  -7.51632 -0.106329 4.53269
LeftToes  1.06247e-005 4.65855e-005 -8.18504e-006
150
root  -4.0523 39.2755 -10.5219 11.6298 78.6506 21.0645
RightUpLeg  -3.42976 -7.59833 -13.3222
RightLeg  61.7259 -2.02639 -4.63718
RightFoot  11.2887 -0.110563 1.00356
RightToes  0.000482159 0.542163 -0.142577
Spine  10.9346 1.80015 -0.619016
Spine1  14.0569 4.93939 -10.0268
HEad  4.82359 16.9652 -7.1275
LeftShoulder1  8.46269 -13.0986 -44.393
LeftArm  -13.3656 30.783 -17.296
LeftForeArm  96.6512 -77.8912 -115.673
LeftHand  -0.25398 0.0180481 5.50724
RightShoulder  5.70252 9.95231 36.3875
RightArm  -13.526 -25.5924 28.8808
RightForeArm  69.2885 75.1123 125.354
RightHand  1.27617 -17.6171 -12.7662
LeftUpLeg  -5.92872 14.3048 -5.16504
LeftLeg  24.7082 10.6091 5.62671
LeftFoot  -8.5213 -0.0430225 3.81997
LeftToes  1.06247e-005 4.65855e-005 -8.18504e-006
151
root  -2.63472 39.5405 -10.5588 10.4693 78.9183 19.2348
RightUpLeg  -8.9997 -9.51354 -11.5958
RightLeg  61.2454 -1.43358 -3.37359
RightFoot  7.76353 -0.602303 3.88413
RightToes  0.000482159 0.542163 -0.142577
Spine  10.3389 1.42304 -1.08397
Spine1  14.2464 4.18792 -8.92924
HEad  4.65766 18.5283 -8.13429
LeftShoulder1  8.47761 -13.1183 -44.4197
LeftArm  -13.2268 30.0884 -17.5176
LeftForeArm  93.2013 -78.2036 -112.217
LeftHand  -0.25398 0.0180481 5.50724
RightShoulder  5.68315 9.93276 36.3072
RightArm  -13.3868 -25.1361 28.8398
RightForeArm  67.0812 75.3849 123.686
RightHand  1.28199 -17.0157 -13.4417
LeftUpLeg  -3.16909 14.9113 -4.62551
LeftLeg  22.776 10.1924 5.01879
LeftFoot  -9.92081 0.0179787 3.41631
LeftToes  1.06247e-005 4.65855e-005 -8.18504e-006
152
root  -1.22599 39.7539 -10.5774 9.89326 79.8333 17.9357
RightUpLeg  -13.6826 -11.8936 -9.34234
RightLeg  57.0442 -1.96936 -3.68466
RightFoot  5.93339 -0.730248 5.04046
RightToes  0.000482159 0.542163 -0.142577
Spine  9.94813 0.846266 -1.37935
Spine1  14.2197 3.21635 -7.87896
HEad  4.80101 19.7491 -8.86671
LeftShoulder1  8.5199 -13.1714 -44.5029
LeftArm  -13.4558 29.4459 -17.7859
LeftForeArm  90.3879 -78.4325 -109.261
LeftHand  -0.25398 0.0180481 5.50724
RightShoulder  5.6474 9.90949 36.1188
RightArm  -13.6353 -25.3452 29.1631
RightForeArm  66.6959 75.3554 123.78
RightHand  1.2916 -16.398 -14.2409
LeftUpLeg  -0.345799 15.1395 -3.99021
LeftLeg  20.4619 9.47992 4.10225
LeftFoot  -11.1743 0.0621982 3.45866
LeftToes  1.06247e-005 4.65855e-005 -8.18504e-006
153
root  0.178847 39.8955 -10.569 10.8891 80.851 18.1018
RightUpLeg  -17.4415 -14.036 -6.93407
RightLeg  49.6666 -3.32598 -4.53011
RightFoot  4.48958 -0.460822 3.5326
RightToes  0.000482159 0.542163 -0.142577
Spine  9.55547 0.396334 -1.82413
Spine1  14.1244 2.35653 -6.70343
HEad  5.08518 20.4607 -9.3228
LeftShoulder1  8.53113 -13.1936 -44.5025
LeftArm  -13.7267 28.671 -18.1655
LeftForeArm  88.7107 -78.5746 -107.273
LeftHand  -0.25398 0.0180481 5.50724
RightShoulder  5.60941 9.87935 35.9343
RightArm  -14.1278 -26.0863 29.4266
RightForeArm  67.8726 75.0767 125.337
RightHand  1.29516 -16.0144 -14.7606
LeftUpLeg  2.4002 14.0732 -3.46976
LeftLeg  18.0007 9.4857 2.803
LeftFoot  -11.87 0.0858763 3.22542
LeftToes  1.06247e-005 4.65855e-005 -8.18504e-006
154
root  1.59348 39.839 -10.4976 15.3169 81.6059 21.8612
RightUpLeg  -19.5475 -15.762 -5.23946
RightLeg  39.1431 -4.18222 -3.95714
RightFoot  2.52229 -0.457248 3.92837
RightToes  0.000482159 0.542163 -0.142577
Spine  9.27456 0.266244 -2.98742
Spine1  14.1511 1.76819 -5.74695
HEad  5.17913 20.6395 -9.6239
LeftShoulder1  8.49982 -13.1844 -44.3568
LeftArm  -13.8026 27.5457 -18.72
LeftForeArm  87.666 -78.6818 -105.762
LeftHand  -0.25398 0.0180481 5.50724
RightShoulder  5.59848 9.87322 35.8732
RightArm  -14.7751 -26.9177 29.4555
RightForeArm  69.0575 74.7401 127.064
RightHand  1.30621 -15.7907 -15.1774
LeftUpLeg  4.59063 12.5465 -3.40258
LeftLeg  17.0582 10.087 1.72869
LeftFoot  -13.223 0.124819 2.75283
LeftToes  1.06247e-005 4.65855e-005 -8.18504e-006
155
root  3.06902 39.6584 -10.3892 22.9211 82.512 29.0217
RightUpLeg  -20.0353 -18.4155 -3.99102
RightLeg  25.9615 -3.04648 -2.0073
RightFoot  1.83884 -0.681804 5.98742
RightToes  0.000482159 0.542163 -0.142577
Spine  8.9993 0.119745 -4.22011
Spine1  14.4633 1.23517 -4.91092
HEad  4.96792 20.3967 -9.9207
LeftShoulder1  8.47513 -13.1856 -44.2184
LeftArm  -13.6232 26.0693 -19.2217
LeftForeArm  86.5002 -78.7911 -104.072
LeftHand  -0.25398 0.0180481 5.50724
RightShoulder  5.59719 9.89157 35.8077
RightArm  -15.5313 -27.5893 29.4612
RightForeArm  69.4379 74.4562 128.354
RightHand  1.3346 -15.542 -15.835
LeftUpLeg  6.77859 11.1172 -3.58356
LeftLeg  16.7962 10.5475 0.99409
LeftFoot  -15.2879 0.178601 2.50844
LeftToes  1.06247e-005 4.65855e-005 -8.18504e-006
